PathFileType	4	(X/Y/Z)	/Users/mathieubourgeois/Desktop/Analyse/Traitement/Sujet_03/Data/Transformed_Sujet_03_velo_80.trc
DataRate	CameraRate	NumFrames	NumMarkers	Units	OrigDataRate	OrigDataStartFrame	OrigNumFrames
120.000000	120.000000	4	36	mm	120.000000	1401	1868
Frame#	Time	RFHD			LFHD			RBHD			LBHD			C7			CLAV			RSHO			LSHO			STRN			T10			RBWT			LBWT			RFWT			LFWT			RKNI			LKNI			RKNE			LKNE			LANI			RANI			LANE			RANE			LTOE			RTOE			LHEE			RHEE			RHUM			LHUM			RRAD			LRAD			RWRA			RWRB			LWRA			LWRB			LCAR			RCAR			
		X1	Y1	Z1	X2	Y2	Z2	X3	Y3	Z3	X4	Y4	Z4	X5	Y5	Z5	X6	Y6	Z6	X7	Y7	Z7	X8	Y8	Z8	X9	Y9	Z9	X10	Y10	Z10	X11	Y11	Z11	X12	Y12	Z12	X13	Y13	Z13	X14	Y14	Z14	X15	Y15	Z15	X16	Y16	Z16	X17	Y17	Z17	X18	Y18	Z18	X19	Y19	Z19	X20	Y20	Z20	X21	Y21	Z21	X22	Y22	Z22	X23	Y23	Z23	X24	Y24	Z24	X25	Y25	Z25	X26	Y26	Z26	X27	Y27	Z27	X28	Y28	Z28	X29	Y29	Z29	X30	Y30	Z30	X31	Y31	Z31	X32	Y32	Z32	X33	Y33	Z33	X34	Y34	Z34	X35	Y35	Z35	X36	Y36	Z36	

1402	11.675	138.4897155761719	1573.765014648438	103.623062133789	123.7310943603516	1572.441162109375	-48.97531509399423	26.14528083801268	1643.329956054688	117.4332122802733	2.739311695098881	1657.922485351562	-29.62935256958018	-116.0740661621094	1556.924682617188	40.19454193115224	-74.53901672363281	1402.797973632812	36.35172271728506	-47.42849349975589	1486.795288085938	208.9014434814452	-80.62866973876952	1504.287231445312	-146.9660797119141	-174.6292114257812	1264.737670898438	37.17309188842763	-330.4659118652344	1454.084716796875	41.1259613037108	-525.9360961914062	1262.20703125	117.4652633666991	-530.3809204101562	1259.774536132812	-5.812479496002339	-377.0930480957031	1196.091918945312	176.2092132568358	-380.2411804199219	1184.40869140625	-67.33047485351574	-133.4479217529297	731.035888671875	124.1743774414062	-77.27493286132812	819.5665893554688	-51.93161773681646	-150.2659454345703	777.21728515625	239.8411254882812	-79.43444061279295	863.6102905273438	-160.1780853271485	-376.9352111816406	591.2969970703125	-49.51283645629891	-163.7990264892578	357.4808654785156	115.3269653320312	-404.4041442871094	577.6541748046875	-136.0648345947266	-191.0548095703125	337.981689453125	201.8383483886718	-274.9055480957031	422.3825988769531	-92.50936889648443	-7.321715354919451	219.5468902587891	143.5114593505859	-476.4745178222656	595.6155395507812	-93.81660461425791	-260.3047790527344	320.0780639648438	159.875259399414	33.38473129272458	1192.447265625	226.4258270263671	12.60058212280275	1196.822998046875	-150.553436279297	86.60072326660153	1218.8193359375	281.6993408203124	61.51195144653323	1230.743530273438	-206.7112121582032	285.5352478027344	1040.117797851562	214.1468658447265	272.1108398437499	1032.768310546875	295.0600280761719	250.0531005859375	1059.406127929688	-128.2330322265625	232.1473541259766	1047.308349609375	-206.6178436279297	328.8971557617188	1034.700317382812	-221.8760070800782	375.1604614257812	1032.996459960938	300.5358276367188	
1403	11.68333333333333	138.5615539550781	1574.068969726562	102.9245147705077	123.8294143676758	1572.712646484375	-49.66403198242196	26.14535331726073	1643.542114257812	116.6431503295897	2.791701078414921	1658.078979492188	-30.38306045532237	-115.9523239135742	1557.045043945312	39.40396499633778	-74.31768035888672	1402.946899414062	35.65282821655264	-47.09440231323245	1486.99609375	208.0883026123046	-80.66515350341795	1504.2861328125	-147.7053833007813	-174.4317626953125	1264.878051757812	36.65256500244131	-330.2502746582031	1454.062622070312	41.05999755859361	-525.6203002929688	1262.219848632812	118.0716400146483	-530.2776489257812	1260.021728515625	-5.241350650787496	-376.9033203125	1195.749267578125	176.4296874999999	-380.2011108398438	1184.777587890625	-67.13899993896496	-141.725341796875	723.4747924804688	123.3184967041015	-71.46542358398438	829.15234375	-52.15024948120123	-157.7575225830078	770.2642211914062	239.213409423828	-74.1262969970703	872.3949584960938	-160.3865966796876	-370.2729187011719	600.2619018554688	-48.75992202758797	-170.6748199462891	349.7420043945312	115.309341430664	-397.8127746582031	586.4952392578125	-135.3160095214845	-198.2259674072266	330.39306640625	201.741226196289	-264.8226013183594	433.2156066894531	-93.10662078857428	-15.60330772399904	209.6636199951172	143.4523620605469	-470.0548095703125	603.683349609375	-92.86630249023447	-267.3050537109375	313.2924194335938	159.792495727539	33.65887069702146	1192.617553710938	226.0317840576171	12.65281677246096	1196.854370117188	-150.883529663086	86.88665008544919	1219.01513671875	281.2054138183593	61.55230712890628	1230.725463867188	-207.0944824218751	285.6648254394531	1040.02197265625	214.1744995117187	272.1734313964843	1032.784301757812	295.0705871582031	250.0621490478516	1059.47705078125	-128.2060546875	232.1834716796875	1047.306274414062	-206.5876617431641	328.9405822753906	1034.71630859375	-221.7774963378907	375.2315368652343	1032.918579101562	300.6212158203125	
1404	11.69166666666667	138.6334838867188	1574.364990234375	102.2147750854491	123.9910430908203	1572.93896484375	-50.38957214355477	26.1703414916992	1643.77294921875	115.8910293579101	2.84423398971558	1658.228271484375	-31.16868591308604	-115.8320465087891	1557.151000976562	38.687831878662	-74.16410064697266	1403.119750976562	34.92166137695303	-46.64882659912112	1487.2109375	207.2552032470702	-80.73283386230467	1504.26904296875	-148.4988708496095	-174.11376953125	1265.002075195312	36.06804275512685	-330.0563049316406	1454.043701171875	41.00558853149401	-525.3458862304688	1262.237060546875	118.5311126708983	-530.0658569335938	1260.23583984375	-4.788594722747945	-376.7579956054688	1195.449829101562	176.6407165527342	-380.0801391601562	1185.128173828125	-66.96118164062511	-149.7322235107422	716.5975341796875	122.4467849731445	-68.86949920654297	839.927001953125	-52.1916122436524	-163.6441802978516	762.9419555664062	237.4537811279296	-70.07052612304686	882.489990234375	-160.3895416259766	-363.1576232910156	608.5060424804688	-48.09025955200203	-178.2088928222656	342.6832275390625	115.2218856811523	-390.7772521972656	594.56591796875	-134.6215820312501	-205.8758544921875	323.6171875	201.7239837646484	-255.6576843261719	443.1375732421875	-93.05496215820318	-24.59789276123049	200.4573669433594	143.475830078125	-463.2074279785156	610.8444213867188	-91.99634552001963	-274.8688354492188	307.3450927734375	159.8019561767578	33.89921951293942	1192.817138671875	225.7610626220702	12.65947341918947	1196.875732421875	-151.1838531494141	87.16961669921872	1219.210815429688	280.8105773925781	61.55330657958987	1230.69091796875	-207.4184722900391	285.7539367675781	1039.917602539062	214.1986389160156	272.2027282714843	1032.794799804688	295.0885620117188	250.0754852294922	1059.56005859375	-128.1923370361328	232.2296600341797	1047.283813476562	-206.5510559082032	328.9678955078125	1034.73388671875	-221.6981811523438	375.2824707031249	1032.849365234375	300.7003784179688	
1405	11.7	138.7772827148438	1574.662109375	101.494659423828	124.1062164306641	1573.133666992188	-51.08660888671884	26.2734966278076	1644.004638671875	115.1198730468749	2.941400527954106	1658.383056640625	-31.97274971008311	-115.7011108398438	1557.27099609375	37.93907165527333	-73.97660064697266	1403.26220703125	34.25001907348624	-46.25660705566409	1487.431396484375	206.5023345947265	-80.77921295166014	1504.275634765625	-149.175750732422	-174.0508270263672	1265.1015625	35.58722686767568	-329.8433532714844	1454.019165039062	40.95173263549791	-525.0746459960938	1262.281982421875	118.8644638061522	-529.8369750976562	1260.441040039062	-4.456518650055074	-376.6959533691406	1195.196411132812	176.8647308349608	-379.9085083007812	1185.423461914062	-66.80532073974621	-157.3713684082032	710.3250122070312	121.5713806152343	-63.39110565185546	848.6547241210938	-51.79052734375006	-170.762191772461	757.589111328125	236.6961364746093	-65.32986450195311	891.6364135742188	-160.563461303711	-355.7537231445312	615.9657592773438	-47.48496627807625	-185.9729461669922	336.4373168945312	115.2142257690429	-383.3193969726562	601.7703247070312	-134.0141601562501	-213.9766845703125	317.5837707519531	201.676773071289	-245.3829498291016	452.6192321777344	-92.81723785400396	-34.22972488403322	191.9813385009766	143.5074920654297	-456.0096435546875	616.902099609375	-91.12593078613291	-282.9125671386719	302.3030700683594	159.7669372558593	34.15974807739255	1192.963500976562	225.5104370117187	12.6486225128174	1196.852783203125	-151.4405975341798	87.45126342773435	1219.450805664062	280.4534606933593	61.54891586303714	1230.621704101562	-207.7286834716798	285.80029296875	1039.826782226562	214.2249603271484	272.2268371582031	1032.805908203125	295.1124572753906	250.0543518066407	1059.638427734375	-128.1591186523438	232.2625732421875	1047.285400390625	-206.5392761230469	328.980712890625	1034.750366210938	-221.6195678710938	375.3070373535156	1032.781860351562	300.7769775390625	
